{
    "asset" : {
        "generator" : "Khronos glTF Blender I/O v1.6.16",
        "version" : "2.0"
    },
    "scene" : 0,
    "scenes" : [
        {
            "name" : "Scene",
            "nodes" : [
                0
            ]
        }
    ],
    "nodes" : [
        {
            "mesh" : 0,
            "name" : "Maus"
        }
    ],
    "materials" : [
        {
            "doubleSided" : true,
            "name" : "Maus_body",
            "pbrMetallicRoughness" : {
                "baseColorFactor" : [
                    0.2140350043773651,
                    0.2140350043773651,
                    0.2140350043773651,
                    1
                ],
                "metallicFactor" : 0,
                "roughnessFactor" : 0.36764708161354065
            }
        },
        {
            "doubleSided" : true,
            "name" : "Maus_ear",
            "pbrMetallicRoughness" : {
                "baseColorFactor" : [
                    0.9403911828994751,
                    0.40906569361686707,
                    0.40906569361686707,
                    1
                ],
                "metallicFactor" : 0,
                "roughnessFactor" : 0.779411792755127
            }
        }
    ],
    "meshes" : [
        {
            "name" : "RetopoFlow",
            "primitives" : [
                {
                    "attributes" : {
                        "POSITION" : 0,
                        "NORMAL" : 1
                    },
                    "indices" : 2,
                    "material" : 0
                },
                {
                    "attributes" : {
                        "POSITION" : 3,
                        "NORMAL" : 4
                    },
                    "indices" : 5,
                    "material" : 1
                }
            ]
        }
    ],
    "accessors" : [
        {
            "bufferView" : 0,
            "componentType" : 5126,
            "count" : 763,
            "max" : [
                0.1293734759092331,
                0.2370116114616394,
                0.3081481456756592
            ],
            "min" : [
                -0.1293734759092331,
                -0.015584350563585758,
                -0.6776701211929321
            ],
            "type" : "VEC3"
        },
        {
            "bufferView" : 1,
            "componentType" : 5126,
            "count" : 763,
            "type" : "VEC3"
        },
        {
            "bufferView" : 2,
            "componentType" : 5123,
            "count" : 4440,
            "type" : "SCALAR"
        },
        {
            "bufferView" : 3,
            "componentType" : 5126,
            "count" : 152,
            "max" : [
                0.13078097999095917,
                0.2685025632381439,
                0.21290302276611328
            ],
            "min" : [
                -0.13078097999095917,
                0.1572517454624176,
                0.11400354653596878
            ],
            "type" : "VEC3"
        },
        {
            "bufferView" : 4,
            "componentType" : 5126,
            "count" : 152,
            "type" : "VEC3"
        },
        {
            "bufferView" : 5,
            "componentType" : 5123,
            "count" : 432,
            "type" : "SCALAR"
        }
    ],
    "bufferViews" : [
        {
            "buffer" : 0,
            "byteLength" : 9156,
            "byteOffset" : 0
        },
        {
            "buffer" : 0,
            "byteLength" : 9156,
            "byteOffset" : 9156
        },
        {
            "buffer" : 0,
            "byteLength" : 8880,
            "byteOffset" : 18312
        },
        {
            "buffer" : 0,
            "byteLength" : 1824,
            "byteOffset" : 27192
        },
        {
            "buffer" : 0,
            "byteLength" : 1824,
            "byteOffset" : 29016
        },
        {
            "buffer" : 0,
            "byteLength" : 864,
            "byteOffset" : 30840
        }
    ],
    "buffers" : [
        {
            "byteLength" : 31704,
            "uri" : "data:application/octet-stream;base64,"
        }
    ]
}
