{
    "asset" : {
        "generator" : "Khronos glTF Blender I/O v1.6.16",
        "version" : "2.0"
    },
    "scene" : 0,
    "scenes" : [
        {
            "name" : "Scene",
            "nodes" : [
                0,
                1
            ]
        }
    ],
    "nodes" : [
        {
            "mesh" : 0,
            "name" : "Plane"
        },
        {
            "mesh" : 1,
            "name" : "B\u00fccher",
            "translation" : [
                -1.4072551727294922,
                1.9781742095947266,
                0
            ]
        }
    ],
    "materials" : [
        {
            "doubleSided" : true,
            "name" : "Regal",
            "pbrMetallicRoughness" : {
                "baseColorFactor" : [
                    0.061889469623565674,
                    0.028893882408738136,
                    0.02255726046860218,
                    1
                ],
                "metallicFactor" : 0,
                "roughnessFactor" : 0.8590909242630005
            }
        },
        {
            "doubleSided" : true,
            "name" : "Regal.001",
            "pbrMetallicRoughness" : {
                "baseColorFactor" : [
                    0.025393981486558914,
                    0.01280225906521082,
                    0.010280043818056583,
                    1
                ],
                "metallicFactor" : 0,
                "roughnessFactor" : 0.5429144501686096
            }
        },
        {
            "doubleSided" : true,
            "name" : "Regal.002",
            "pbrMetallicRoughness" : {
                "baseColorFactor" : [
                    0.12823939323425293,
                    0.0905139148235321,
                    0.07834243029356003,
                    1
                ],
                "metallicFactor" : 0,
                "roughnessFactor" : 0.9473262429237366
            }
        },
        {
            "doubleSided" : true,
            "name" : "rot",
            "pbrMetallicRoughness" : {
                "baseColorFactor" : [
                    0.17190852761268616,
                    0.009009592235088348,
                    0.011746766045689583,
                    1
                ],
                "metallicFactor" : 0,
                "roughnessFactor" : 0.41363635659217834
            }
        },
        {
            "doubleSided" : true,
            "name" : "wei\u00df",
            "pbrMetallicRoughness" : {
                "baseColorFactor" : [
                    0.6981927156448364,
                    0.6981927156448364,
                    0.6981927156448364,
                    1
                ],
                "metallicFactor" : 0,
                "roughnessFactor" : 0.8254010677337646
            }
        }
    ],
    "meshes" : [
        {
            "name" : "Plane",
            "primitives" : [
                {
                    "attributes" : {
                        "POSITION" : 0,
                        "NORMAL" : 1,
                        "TEXCOORD_0" : 2
                    },
                    "indices" : 3,
                    "material" : 0
                },
                {
                    "attributes" : {
                        "POSITION" : 4,
                        "NORMAL" : 5,
                        "TEXCOORD_0" : 6
                    },
                    "indices" : 7,
                    "material" : 1
                },
                {
                    "attributes" : {
                        "POSITION" : 8,
                        "NORMAL" : 9,
                        "TEXCOORD_0" : 10
                    },
                    "indices" : 11,
                    "material" : 2
                }
            ]
        },
        {
            "name" : "Cube.001",
            "primitives" : [
                {
                    "attributes" : {
                        "POSITION" : 12,
                        "NORMAL" : 13,
                        "TEXCOORD_0" : 14
                    },
                    "indices" : 15,
                    "material" : 3
                },
                {
                    "attributes" : {
                        "POSITION" : 16,
                        "NORMAL" : 17,
                        "TEXCOORD_0" : 18
                    },
                    "indices" : 19,
                    "material" : 4
                }
            ]
        }
    ],
    "accessors" : [
        {
            "bufferView" : 0,
            "componentType" : 5126,
            "count" : 20732,
            "max" : [
                2.069643497467041,
                7.814457893371582,
                0.9380766749382019
            ],
            "min" : [
                -2.069643497467041,
                1.2031894591757464e-08,
                -0.5232234597206116
            ],
            "type" : "VEC3"
        },
        {
            "bufferView" : 1,
            "componentType" : 5126,
            "count" : 20732,
            "type" : "VEC3"
        },
        {
            "bufferView" : 2,
            "componentType" : 5126,
            "count" : 20732,
            "type" : "VEC2"
        },
        {
            "bufferView" : 3,
            "componentType" : 5123,
            "count" : 58464,
            "type" : "SCALAR"
        },
        {
            "bufferView" : 4,
            "componentType" : 5126,
            "count" : 5967,
            "max" : [
                1.8776309490203857,
                7.505755424499512,
                0.8181355595588684
            ],
            "min" : [
                -1.8776309490203857,
                0.5858293771743774,
                -0.46676620841026306
            ],
            "type" : "VEC3"
        },
        {
            "bufferView" : 5,
            "componentType" : 5126,
            "count" : 5967,
            "type" : "VEC3"
        },
        {
            "bufferView" : 6,
            "componentType" : 5126,
            "count" : 5967,
            "type" : "VEC2"
        },
        {
            "bufferView" : 7,
            "componentType" : 5123,
            "count" : 25728,
            "type" : "SCALAR"
        },
        {
            "bufferView" : 8,
            "componentType" : 5126,
            "count" : 1997,
            "max" : [
                1.9152402877807617,
                5.860992431640625,
                0.4093779921531677
            ],
            "min" : [
                -1.9152402877807617,
                2.580782890319824,
                -0.4093779921531677
            ],
            "type" : "VEC3"
        },
        {
            "bufferView" : 9,
            "componentType" : 5126,
            "count" : 1997,
            "type" : "VEC3"
        },
        {
            "bufferView" : 10,
            "componentType" : 5126,
            "count" : 1997,
            "type" : "VEC2"
        },
        {
            "bufferView" : 11,
            "componentType" : 5123,
            "count" : 3072,
            "type" : "SCALAR"
        },
        {
            "bufferView" : 12,
            "componentType" : 5126,
            "count" : 9750,
            "max" : [
                3.037644147872925,
                4.581627368927002,
                0.22767983376979828
            ],
            "min" : [
                -0.21232427656650543,
                -0.3513137102127075,
                -0.22768153250217438
            ],
            "type" : "VEC3"
        },
        {
            "bufferView" : 13,
            "componentType" : 5126,
            "count" : 9750,
            "type" : "VEC3"
        },
        {
            "bufferView" : 14,
            "componentType" : 5126,
            "count" : 9750,
            "type" : "VEC2"
        },
        {
            "bufferView" : 15,
            "componentType" : 5123,
            "count" : 31200,
            "type" : "SCALAR"
        },
        {
            "bufferView" : 16,
            "componentType" : 5126,
            "count" : 1650,
            "max" : [
                2.980355739593506,
                4.520248889923096,
                0.17039158940315247
            ],
            "min" : [
                -0.15503601729869843,
                -0.28993526101112366,
                -0.1663030982017517
            ],
            "type" : "VEC3"
        },
        {
            "bufferView" : 17,
            "componentType" : 5126,
            "count" : 1650,
            "type" : "VEC3"
        },
        {
            "bufferView" : 18,
            "componentType" : 5126,
            "count" : 1650,
            "type" : "VEC2"
        },
        {
            "bufferView" : 19,
            "componentType" : 5123,
            "count" : 4800,
            "type" : "SCALAR"
        }
    ],
    "bufferViews" : [
        {
            "buffer" : 0,
            "byteLength" : 248784,
            "byteOffset" : 0
        },
        {
            "buffer" : 0,
            "byteLength" : 248784,
            "byteOffset" : 248784
        },
        {
            "buffer" : 0,
            "byteLength" : 165856,
            "byteOffset" : 497568
        },
        {
            "buffer" : 0,
            "byteLength" : 116928,
            "byteOffset" : 663424
        },
        {
            "buffer" : 0,
            "byteLength" : 71604,
            "byteOffset" : 780352
        },
        {
            "buffer" : 0,
            "byteLength" : 71604,
            "byteOffset" : 851956
        },
        {
            "buffer" : 0,
            "byteLength" : 47736,
            "byteOffset" : 923560
        },
        {
            "buffer" : 0,
            "byteLength" : 51456,
            "byteOffset" : 971296
        },
        {
            "buffer" : 0,
            "byteLength" : 23964,
            "byteOffset" : 1022752
        },
        {
            "buffer" : 0,
            "byteLength" : 23964,
            "byteOffset" : 1046716
        },
        {
            "buffer" : 0,
            "byteLength" : 15976,
            "byteOffset" : 1070680
        },
        {
            "buffer" : 0,
            "byteLength" : 6144,
            "byteOffset" : 1086656
        },
        {
            "buffer" : 0,
            "byteLength" : 117000,
            "byteOffset" : 1092800
        },
        {
            "buffer" : 0,
            "byteLength" : 117000,
            "byteOffset" : 1209800
        },
        {
            "buffer" : 0,
            "byteLength" : 78000,
            "byteOffset" : 1326800
        },
        {
            "buffer" : 0,
            "byteLength" : 62400,
            "byteOffset" : 1404800
        },
        {
            "buffer" : 0,
            "byteLength" : 19800,
            "byteOffset" : 1467200
        },
        {
            "buffer" : 0,
            "byteLength" : 19800,
            "byteOffset" : 1487000
        },
        {
            "buffer" : 0,
            "byteLength" : 13200,
            "byteOffset" : 1506800
        },
        {
            "buffer" : 0,
            "byteLength" : 9600,
            "byteOffset" : 1520000
        }
    ],
    "buffers" : [
        {
            "byteLength" : 1529600,
            "uri" : "data:application/octet-stream;base64,"
        }
    ]
}
